DataType=double
version=3
OpenSimVersion=4.5-2023-11-26-efcdfd3eb
endheader
time	EMG01_right_gast_med	EMG02_right_glut_max	EMG03_left_gast_med	EMG04_left_glut_max	EMG05_right_glut_med	EMG06_right_bic_fem	EMG07_right_rect_fem	EMG08_right_vast_lat	EMG09_right_vast_med	EMG10_right_tens_fasc_lat	EMG11_left_glut_med	EMG12_left_bic_fem	EMG13_left_rect_fem	EMG14_left_vast_lat	EMG15_left_vast_med	EMG16_left_tens_fasc_lat
0.63	155.1427487108207	2.042922053779106	9.276771236154911	49.32297561332807	74.40014864272023	22.4484145349018	5.646531309896015	5.711933361451851	15.14274785698532	15.96706893591749	11.69944811729489	25.89813296230927	17.39285069042161	23.51146948580232	27.51412481557989	67.31944423058691
0.64	151.4150904495104	1.795661708812698	12.20024518281673	49.28587736466091	80.2189588493266	22.38787520057329	5.943791035843996	5.833598273209408	15.24443988966659	15.95285289195921	12.55590284152288	27.00923586402585	18.37206230792442	24.9515063388161	29.62163363389267	66.7619255556461
0.65	147.1394038381212	1.825845637749653	15.06279748043777	49.33182262594081	86.60929031449089	22.26230076376724	6.265364493494582	5.969198864771833	15.47675667819471	16.10025592989305	13.41934302902301	28.02712170049687	19.33092110319563	26.39361544682864	31.90061293869261	66.28180673690066
0.66	142.3527711369578	2.138429623907188	17.84771897967387	49.45439740680409	93.52787469099999	22.06895233727609	6.606493845245019	6.116742003580014	15.83168153975747	16.40106510508126	14.28337120383952	28.94208042350058	20.26075493138597	27.82503241716916	34.32989862957158	65.90098867384742
0.67	137.097257944645	2.736108269345405	20.54077472506549	49.64599291511308	100.9234128081933	21.80662058797123	6.962277129337912	6.274259921996703	16.29993364653591	16.84515046152907	15.14144782568808	29.74527500963108	21.15287889114272	29.23253231863295	36.88561425656756	65.63970574331465
0.68	131.4193875993016	3.619218663908785	23.13010712806813	49.89800646018757	108.7367965237793	21.47554515392035	7.327731208061379	6.43980188409658	16.8710425379248	17.42064059884632	15.98695668128328	30.42884863010611	21.9987186774302	30.60259999527914	39.54150207487666	65.51608237946161
0.6899999999999999	125.3695507450447	4.785653312706583	25.60613586063384	50.20105099457415	116.9014413260519	21.0773099914299	7.697855094836267	6.61142443927117	17.5334330362436	18.11412049993594	16.81327544332449	30.98603003225955	22.78994112239945	31.92161074976924	42.26929459907301	65.54572915329098
0.7	119.0013544130812	6.230784731937916	27.96145827612179	50.54516861878376	125.3437375409079	20.61471881312248	8.067692422811914	6.787180967421039	18.27452117221121	18.91084884388456	17.61385106575369	31.41123565489293	23.51858839924019	33.17601776836722	45.03912020554066	65.74138804058137
0.71	112.370915681882	7.947404454095208	30.190753064865	50.92004246297789	133.9836286375773	20.09165515624263	8.432391660608268	6.965111294222847	19.08082164085124	19.79499141843171	18.38227911585787	31.70016606548402	24.17721191346984	34.35254272107655	47.81993590761547	66.11263438505955
0.72	105.5361082277506	9.925679382836442	32.29068863172561	51.31520090984225	142.7353250567311	19.51293224955588	8.787262589217322	7.143232313127137	19.93806723388933	20.74986673933754	19.11238566376203	31.84989333419993	24.75900156768664	35.43836631816221	50.57998032386984	66.66564082741162
0.73	98.5557742258685	12.15312856666506	34.25983642374765	51.72020830132023	151.5081605097446	18.88413826152799	9.127827523096835	7.319530734112711	20.83134059484817	21.75819966587525	19.79831002844126	31.85893505478908	25.25790603597196	36.42131611609674	53.28723986512294	67.40300606659457
0.74	91.48891771760557	14.61462355350179	36.09858817918875	52.12483719317555	160.2075944495171	18.21148241124198	9.44986592142906	7.491959196752244	21.7452184733007	22.80237864026201	20.43458649636831	31.72730998221781	25.66874009152892	37.2900494254168	55.90992108114753	68.32364895102135
0.75	84.39389813575829	17.29241555678662	37.80907479981912	52.519218770328	168.7363593269798	17.50164686775219	9.749451575742173	7.658436968714752	22.66392839585268	23.86471206608798	21.01622304075428	31.4565699741118	25.98727595524349	38.03422955676004	58.41692207330436	69.42276650684798
